<?xml version="1.0" encoding="utf-8"?>
<!-- Generator: Adobe Illustrator 26.0.0, SVG Export Plug-In . SVG Version: 6.00 Build 0)  -->
<svg version="1.1" id="图层_1" xmlns="http://www.w3.org/2000/svg" xmlns:xlink="http://www.w3.org/1999/xlink" x="0px" y="0px"
	 viewBox="0 0 720.5 256.3" style="enable-background:new 0 0 720.5 256.3;" xml:space="preserve">
<style type="text/css">
	.st0{fill:#333538;}
	.st1{fill:url(#SVGID_1_);}
	.st2{fill:url(#SVGID_00000067938383316361639520000002828621866732721847_);}
	.st3{fill:url(#SVGID_00000114037664175451986290000009175253547933094798_);}
	.st4{fill:url(#SVGID_00000009573640572522269730000002472146531740504457_);}
</style>
<g>
	<g>
		<g>
			<path class="st0" d="M629.4,98.4v8.1h85.9v17.3h-85.9v10.5l80.6-0.2V165c0,5.5-1.9,10.2-5.8,14s-8.5,5.7-13.9,5.7h-6.1v-17.1h6.1
				c0.7,0,1.3-0.2,1.8-0.8c0.4-0.5,0.7-1.1,0.7-1.9v-13.6h-63.3v8.9l85,41.7l-7.7,15.3l-77.3-37.7V217h-17.3v-37.3
				c-3.8,2.3-25.8,13.1-32.8,16.5c-6.9,3.4-14.6,6.7-22.9,10.1c-8.3,3.4-17.2,6.6-26.5,9.6l-5.3-16.4c11.4-3.6,22-7.6,31.8-11.8
				s18.4-8.3,26-12.3s27.5-14.6,29.7-16v-8h-56.3v32.9h-17.3v-50l73.6-0.2v-10.3h-82.8v-17.3h82.8v-8.1L629.4,98.4L629.4,98.4z
				 M570.2,53.5c-1.2,2.6-2.6,5.4-4.4,8.3h55.9v17.3h-26.3l7.5,9.9l-14,10.3L574,79.1h-19.7c-4.1,5.3-7.7,9.6-11,13.1
				c-3.2,3.5-5,5.4-5.3,5.7l-12.5-11.8c4.5-5,8.3-9.4,11.4-13.1c3.1-3.8,6.2-8,9.5-12.7s6-9.4,8.2-14L570.2,53.5z M669,53.5
				c-0.6,1.5-1.2,2.9-2,4.3c-0.7,1.4-1.5,2.7-2.2,4.1h55.7v17.3h-26.1l7.2,9.9l-13.8,10.3L673,79.1h-20c-4.1,5.3-7.7,9.6-10.8,13.1
				s-4.9,5.4-5.2,5.7l-12.5-11.8c4.5-5,8.3-9.4,11.4-13.1c3.1-3.8,6.2-8,9.4-12.7s5.9-9.4,8.1-14L669,53.5z"/>
			<g>
				<path class="st0" d="M468.9,114.3c3.9-3.9,5.8-8.5,5.8-13.9V51.5H311.9v68.6H455C460.4,120.1,465,118.1,468.9,114.3z
					 M329.2,68.8h128.2v8.8H329.2V68.8z M329.2,94.9h128.2v5.5c0,1.6-0.8,2.4-2.4,2.4H329.2V94.9z"/>
				<path class="st0" d="M403.1,200v-13.6h66.4v-17.3h-66.4v-14.5h74.3v-17.3h-74.3v-10.2h-17.3v10.2h-55.4c1.2-3.2,2-5.8,2.5-7.8
					c0.2-0.8,0.4-1.5,0.5-2l-16.9-4c-1.4,4.9-2.8,9.4-4.4,13.4c-1.7,4.3-3.9,9-6.7,14.1c-2.8,5.2-6.2,10.1-10.3,15l13.1,11
					c3.1-3.6,5.8-7.4,8.2-11.2c2.4-3.8,4.6-7.5,6.5-11.2h62.9v14.5h-65.5v17.3h65.5V200h-85.2v17.3H489V200H403.1L403.1,200z"/>
			</g>
		</g>
	</g>
</g>
<g>
	<g>
		
			<linearGradient id="SVGID_1_" gradientUnits="userSpaceOnUse" x1="0" y1="37.4606" x2="147.74" y2="37.4606" gradientTransform="matrix(1 0 0 -1 0 257.2756)">
			<stop  offset="0" style="stop-color:#1E275F"/>
			<stop  offset="1" style="stop-color:#313A6A"/>
		</linearGradient>
		<polygon class="st1" points="41.2,256.3 0,183.3 106.6,183.3 147.7,256.3 		"/>
		
			<linearGradient id="SVGID_00000168838575122814090710000017166374077575763082_" gradientUnits="userSpaceOnUse" x1="84.42" y1="220.7706" x2="232.15" y2="220.7706" gradientTransform="matrix(1 0 0 -1 0 257.2756)">
			<stop  offset="0" style="stop-color:#1E275F"/>
			<stop  offset="1" style="stop-color:#313A6A"/>
		</linearGradient>
		<polygon style="fill:url(#SVGID_00000168838575122814090710000017166374077575763082_);" points="191,0 232.1,73 125.6,73 84.4,0 
					"/>
	</g>
</g>
<g>
	<g>
		
			<linearGradient id="SVGID_00000149370997789516801590000001570271245809921428_" gradientUnits="userSpaceOnUse" x1="43.8709" y1="-2.2234" x2="187.9517" y2="251.9415">
			<stop  offset="0" style="stop-color:#97BCFF"/>
			<stop  offset="0.2134" style="stop-color:#7EA3F5"/>
			<stop  offset="1" style="stop-color:#2648D1"/>
		</linearGradient>
		<polygon style="fill:url(#SVGID_00000149370997789516801590000001570271245809921428_);" points="192.8,185.6 151.6,112.6 
			106.6,183.3 147.7,256.3 		"/>
		
			<linearGradient id="SVGID_00000116922182781390526630000009863576918118020244_" gradientUnits="userSpaceOnUse" x1="41.2902" y1="-0.7604" x2="185.3709" y2="253.4044">
			<stop  offset="0" style="stop-color:#97BCFF"/>
			<stop  offset="0.2134" style="stop-color:#7EA3F5"/>
			<stop  offset="1" style="stop-color:#2648D1"/>
		</linearGradient>
		<polygon style="fill:url(#SVGID_00000116922182781390526630000009863576918118020244_);" points="39.3,70.7 80.5,143.7 125.6,73 
			84.4,0 		"/>
	</g>
</g>
</svg>
